<mxfile host="65bd71144e" modified="2020-10-15T07:39:08.234Z" agent="5.0 (Windows NT 10.0; Win64; x64) AppleWebKit/537.36 (KHTML, like Gecko) Code/1.50.1 Chrome/83.0.4103.122 Electron/9.2.1 Safari/537.36" version="13.6.5" etag="J18-z6mG_u4aQpYEdDzf">
    <diagram id="WLWj0fb5QzhJuV7R6VAS" name="ページ1">
        <mxGraphModel dx="1022" dy="587" grid="1" gridSize="10" guides="1" tooltips="1" connect="1" arrows="1" fold="1" page="1" pageScale="1" pageWidth="827" pageHeight="1169" math="0" shadow="0">
            <root>
                <mxCell id="0"/>
                <mxCell id="1" parent="0"/>
                <mxCell id="2" value="メイン画面" style="swimlane;fontStyle=0;childLayout=stackLayout;horizontal=1;startSize=26;horizontalStack=0;resizeParent=1;resizeParentMax=0;resizeLast=0;collapsible=1;marginBottom=0;align=center;fontSize=14;" vertex="1" parent="1">
                    <mxGeometry x="40" y="80" width="160" height="270" as="geometry"/>
                </mxCell>
                <mxCell id="3" value="表示&#10;・マイページ遷移ボタン&#10;・検索フォーム&#10;・投稿ボタン&#10;・設定ボタン&#10;・カルーセル（スライド）&#10;・カード（各災害のカード）&#10;入力&#10;・検索キーワード&#10;操作&#10;・マイページ遷移ボタン押下&#10;・検索ボタン押下&#10;・投稿ボタン押下&#10;・設定ボタン押下&#10;・カルーセル押下&#10;・カード押下" style="text;strokeColor=none;fillColor=none;spacingLeft=4;spacingRight=4;overflow=hidden;rotatable=0;points=[[0,0.5],[1,0.5]];portConstraint=eastwest;fontSize=12;" vertex="1" parent="2">
                    <mxGeometry y="26" width="160" height="244" as="geometry"/>
                </mxCell>
                <mxCell id="4" value="" style="verticalLabelPosition=bottom;verticalAlign=top;html=1;shape=mxgraph.basic.8_point_star" vertex="1" parent="1">
                    <mxGeometry x="300" y="130" width="250" height="130" as="geometry"/>
                </mxCell>
                <mxCell id="5" value="「マイページボタン」を押す" style="text;html=1;strokeColor=none;fillColor=none;align=center;verticalAlign=middle;whiteSpace=wrap;rounded=0;" vertex="1" parent="1">
                    <mxGeometry x="357.5" y="183.75" width="135" height="22.5" as="geometry"/>
                </mxCell>
                <mxCell id="6" value="マイページ" style="swimlane;fontStyle=0;childLayout=stackLayout;horizontal=1;startSize=26;horizontalStack=0;resizeParent=1;resizeParentMax=0;resizeLast=0;collapsible=1;marginBottom=0;align=center;fontSize=14;" vertex="1" parent="1">
                    <mxGeometry x="880" y="80" width="160" height="240" as="geometry"/>
                </mxCell>
                <mxCell id="7" value="表示&#10;・ユーザ名&#10;・トップ画像&#10;・プロフィール文&#10;・過去投稿タブ&#10;・画像一覧タブ&#10;・アカウント管理タブ&#10;入力&#10;・検索キーワード&#10;操作&#10;・過去投稿タブ押下&#10;・過去画像タブ押下&#10;・アカウント管理タブ押下&#10;・設定ボタン押下" style="text;strokeColor=none;fillColor=none;spacingLeft=4;spacingRight=4;overflow=hidden;rotatable=0;points=[[0,0.5],[1,0.5]];portConstraint=eastwest;fontSize=12;" vertex="1" parent="6">
                    <mxGeometry y="26" width="160" height="214" as="geometry"/>
                </mxCell>
                <mxCell id="8" value="画面遷移処理" style="ellipse;whiteSpace=wrap;html=1;" vertex="1" parent="1">
                    <mxGeometry x="630" y="155" width="120" height="80" as="geometry"/>
                </mxCell>
                <mxCell id="9" value="" style="endArrow=classic;html=1;exitX=0.995;exitY=0.392;exitDx=0;exitDy=0;exitPerimeter=0;entryX=0.147;entryY=0.538;entryDx=0;entryDy=0;entryPerimeter=0;" edge="1" parent="1" source="3" target="4">
                    <mxGeometry width="50" height="50" relative="1" as="geometry">
                        <mxPoint x="650" y="330" as="sourcePoint"/>
                        <mxPoint x="700" y="280" as="targetPoint"/>
                    </mxGeometry>
                </mxCell>
                <mxCell id="10" value="" style="endArrow=classic;html=1;exitX=0.84;exitY=0.538;exitDx=0;exitDy=0;exitPerimeter=0;" edge="1" parent="1" source="4">
                    <mxGeometry width="50" height="50" relative="1" as="geometry">
                        <mxPoint x="560" y="200" as="sourcePoint"/>
                        <mxPoint x="630" y="200" as="targetPoint"/>
                        <Array as="points"/>
                    </mxGeometry>
                </mxCell>
                <mxCell id="11" value="" style="endArrow=classic;html=1;entryX=0;entryY=0.449;entryDx=0;entryDy=0;entryPerimeter=0;" edge="1" parent="1" target="7">
                    <mxGeometry width="50" height="50" relative="1" as="geometry">
                        <mxPoint x="760" y="200" as="sourcePoint"/>
                        <mxPoint x="700" y="280" as="targetPoint"/>
                    </mxGeometry>
                </mxCell>
            </root>
        </mxGraphModel>
    </diagram>
</mxfile>